
<svg width="129" height="24" viewBox="0 0 129 24" fill="none" xmlns="http://www.w3.org/2000/svg">
<path d="M121.371 11.7733C119.647 12.3584 117.338 12.9015 114.924 12.7717C111.71 12.602 109.372 11.6575 104.702 9.77253C103.831 9.4231 102.964 9.0517 102.094 8.6783C105.339 7.55012 109.749 9.80848 114.384 10.9486C119.019 12.0908 121.371 11.7733 121.371 11.7733Z" fill="url(#paint0_linear_2195_8747)"/>
<path d="M124.309 10.5235C124.309 10.5235 123.151 11.1725 121.367 11.7755C121.367 11.7755 119.015 12.091 114.38 10.9509C109.745 9.81069 105.335 7.55233 102.09 8.68051C98.8812 7.31072 95.6492 5.89899 92.2734 5.22009C97.7462 3.04759 111.554 6.72965 111.889 6.81951C111.893 6.82151 111.894 6.82151 111.894 6.82151C115.884 8.60263 119.9 10.4517 124.309 10.5235Z" fill="url(#paint1_linear_2195_8747)"/>
<path d="M111.896 6.81525C111.562 6.72739 97.754 3.04333 92.2812 5.21583C90.6215 4.88237 88.9249 4.72462 87.1797 4.83844C87.1797 4.83844 92.1802 2.79174 97.8201 3.01737C100.98 3.14517 104.117 3.77216 107.102 4.83245C108.711 5.40353 110.301 6.1044 111.895 6.81525H111.896Z" fill="url(#paint2_linear_2195_8747)"/>
<path d="M95.3064 18.2345C93.4329 19.4406 91.266 20.1474 89.0485 20.1015C86.763 20.0556 84.8662 19.0672 82.7906 18.2345C80.7364 17.4138 78.5947 16.5332 76.4297 16.4753C78.6277 15.6227 81.9491 16.8028 84.6699 17.3779C86.4773 17.7593 87.795 17.5536 88.5898 17.31C90.6907 18.1866 92.7857 18.7636 95.3064 18.2325V18.2345Z" fill="url(#paint3_linear_2195_8747)"/>
<path d="M88.6044 17.3115C87.8096 17.5551 86.49 17.7627 84.6845 17.3793C81.9637 16.8043 78.6423 15.6242 76.4443 16.4768C75.3326 16.4488 74.2152 16.6385 73.1016 17.1637C73.1016 17.1637 75.5659 15.0112 78.9436 14.6977C80.9997 14.508 83.1395 14.9253 85.0421 15.732C86.282 16.2572 87.4442 16.8302 88.6044 17.3115Z" fill="url(#paint4_linear_2195_8747)"/>
<path d="M128.588 11.3945C128.339 11.7659 128.106 12.7024 127.968 12.982C127.325 14.2919 126.538 15.5638 125.548 16.6281C123.352 18.9863 120.089 20.2443 117.005 20.7255C113.511 21.2666 110.005 20.9911 106.633 20.1065C108.193 18.9364 110.852 19.0941 112.677 18.9723C119.069 18.547 124.188 16.2367 128.588 11.3965V11.3945Z" fill="url(#paint5_linear_2195_8747)"/>
<path d="M128.696 11.2656C128.659 11.2916 128.618 11.3335 128.581 11.3914C124.183 16.2316 119.062 18.5419 112.67 18.9672C110.845 19.091 108.187 18.9333 106.626 20.1014C104.309 19.4964 102.061 18.6038 99.9211 17.4956C95.6921 15.3051 91.1989 13.1606 86.4219 12.7213C89.0319 12.0344 95.0897 12.7612 101.606 14.6502C108.12 16.5371 111.9 14.9457 111.9 14.9457C113.131 15.1374 114.365 15.2772 115.595 15.371C120.343 15.7284 124.766 13.8994 128.696 11.2656Z" fill="url(#paint6_linear_2195_8747)"/>
<path d="M111.906 14.9467C111.906 14.9467 108.128 16.5382 101.612 14.6512C95.0936 12.7642 89.0379 12.0354 86.4278 12.7223C82.0978 12.3249 77.4141 12.5306 73.1094 13.6828C81.437 7.91405 90.8492 8.20558 90.8492 8.20558C94.0131 9.07019 97.0488 10.5818 100.082 11.7559C103.861 13.2215 107.874 14.3297 111.906 14.9467Z" fill="url(#paint7_linear_2195_8747)"/>
<path d="M90.8386 8.20474C90.8386 8.20474 81.4284 7.91321 73.0988 13.6819H73.0949C72.2418 13.9115 71.4041 14.1771 70.5859 14.4826C70.5859 14.4826 77.1742 7.7934 85.6088 7.51585C87.4026 7.45594 89.1381 7.73549 90.8386 8.20474Z" fill="url(#paint8_linear_2195_8747)"/>
<path d="M5.61444 7.68931C5.91613 7.85262 6.06836 8.06851 6.06836 8.34253C6.06836 8.41173 6.05452 8.49199 6.02684 8.58887C5.99917 8.68574 5.96596 8.77985 5.92721 8.87396C5.88846 8.96807 5.85247 9.0511 5.81648 9.12307C5.7805 9.1978 5.75006 9.24762 5.72792 9.27253C5.61444 9.39985 5.45943 9.52718 5.26568 9.64619C5.07193 9.76521 4.8505 9.87316 4.60693 9.96173C4.36336 10.0503 4.09764 10.1195 3.81255 10.1721C3.52746 10.2219 3.2313 10.2496 2.92961 10.2496C2.34559 10.2496 1.87505 10.1721 1.50969 10.0171C1.14433 9.86209 0.878623 9.68218 0.709783 9.47736C0.554783 9.2836 0.446838 9.0511 0.383177 8.78262C0.319516 8.51414 0.289062 8.2069 0.289062 7.86646C0.289062 7.4236 0.347189 6.97244 0.463439 6.51574C0.579689 6.05905 0.726385 5.62449 0.903528 5.21484L1.58996 5.45842C1.4571 5.84315 1.35746 6.21404 1.28827 6.56833C1.21907 6.92261 1.18586 7.22154 1.18586 7.46788C1.18586 7.69208 1.20523 7.87753 1.24398 8.02976C1.28273 8.182 1.32978 8.30378 1.39067 8.39789C1.47648 8.53905 1.67577 8.65807 1.98023 8.75771C2.2847 8.85735 2.64175 8.90718 3.04032 8.90718C3.35862 8.90718 3.71568 8.87119 4.11702 8.802C4.51836 8.7328 4.87541 8.60548 5.19372 8.42003C5.083 8.27333 4.87818 8.12387 4.57925 7.97717C4.28032 7.83048 3.88452 7.70315 3.3946 7.59797L3.69631 6.70119C3.7406 6.56833 3.80425 6.47699 3.88728 6.42717C3.96755 6.37458 4.08934 6.34967 4.25264 6.34967H6.06836V7.68931H5.61444Z" fill="#1F2328"/>
<path d="M6.06536 7.69511C5.99616 7.69511 5.93527 7.62868 5.87992 7.49583C5.82456 7.36297 5.79688 7.20797 5.79688 7.03083C5.79688 6.85368 5.82456 6.68761 5.87992 6.55476C5.93527 6.4219 5.99616 6.35547 6.06536 6.35547H7.22786V7.69511H6.06536Z" fill="#1F2328"/>
<path d="M7.23723 7.69511C7.16804 7.69511 7.10714 7.62868 7.05178 7.49583C6.99643 7.36297 6.96875 7.20797 6.96875 7.03083C6.96875 6.85368 6.99643 6.68761 7.05178 6.55476C7.10714 6.4219 7.16804 6.35547 7.23723 6.35547H8.39973V7.69511H7.23723Z" fill="#1F2328"/>
<path d="M8.40129 7.69511C8.33209 7.69511 8.2712 7.62868 8.21585 7.49583C8.16049 7.36297 8.13281 7.20797 8.13281 7.03083C8.13281 6.85368 8.16049 6.68761 8.21585 6.55476C8.2712 6.4219 8.33209 6.35547 8.40129 6.35547H9.56379V7.69511H8.40129Z" fill="#1F2328"/>
<path d="M9.54973 7.69511C9.48054 7.69511 9.41964 7.62868 9.36428 7.49583C9.30893 7.36297 9.28125 7.20797 9.28125 7.03083C9.28125 6.85368 9.30893 6.68761 9.36428 6.55476C9.41964 6.4219 9.48054 6.35547 9.54973 6.35547H10.7122V7.69511H9.54973Z" fill="#1F2328"/>
<path d="M10.7216 7.69511C10.6524 7.69511 10.5915 7.62868 10.5362 7.49583C10.4808 7.36297 10.4531 7.20797 10.4531 7.03083C10.4531 6.85368 10.4808 6.68761 10.5362 6.55476C10.5915 6.4219 10.6524 6.35547 10.7216 6.35547H11.8841V7.69511H10.7216Z" fill="#1F2328"/>
<path d="M11.8935 7.69511C11.8243 7.69511 11.7634 7.62868 11.708 7.49583C11.6527 7.36297 11.625 7.20797 11.625 7.03083C11.625 6.85368 11.6527 6.68761 11.708 6.55476C11.7634 6.4219 11.8243 6.35547 11.8935 6.35547H13.056V7.69511H11.8935Z" fill="#1F2328"/>
<path d="M13.0575 7.69511C12.9883 7.69511 12.9275 7.62868 12.8721 7.49583C12.8167 7.36297 12.7891 7.20797 12.7891 7.03083C12.7891 6.85368 12.8167 6.68761 12.8721 6.55476C12.9275 6.4219 12.9883 6.35547 13.0575 6.35547H14.2201V7.69511H13.0575Z" fill="#1F2328"/>
<path d="M14.2138 7.69511C14.1446 7.69511 14.0837 7.62868 14.0283 7.49583C13.973 7.36297 13.9453 7.20797 13.9453 7.03083C13.9453 6.85368 13.973 6.68761 14.0283 6.55476C14.0837 6.4219 14.1446 6.35547 14.2138 6.35547H15.3763V7.69511H14.2138Z" fill="#1F2328"/>
<path d="M15.3779 7.69511C15.3087 7.69511 15.2478 7.62868 15.1924 7.49583C15.1371 7.36297 15.1094 7.20797 15.1094 7.03083C15.1094 6.85368 15.1371 6.68761 15.1924 6.55476C15.2478 6.4219 15.3087 6.35547 15.3779 6.35547H16.5404V7.69511H15.3779Z" fill="#1F2328"/>
<path d="M16.5341 7.69511C16.4649 7.69511 16.404 7.62868 16.3487 7.49583C16.2933 7.36297 16.2656 7.20797 16.2656 7.03083C16.2656 6.85368 16.2933 6.68761 16.3487 6.55476C16.404 6.4219 16.4649 6.35547 16.5341 6.35547H17.6966V7.69511H16.5341Z" fill="#1F2328"/>
<path d="M17.706 7.69511C17.6368 7.69511 17.5759 7.62868 17.5205 7.49583C17.4652 7.36297 17.4375 7.20797 17.4375 7.03083C17.4375 6.85368 17.4652 6.68761 17.5205 6.55476C17.5759 6.4219 17.6368 6.35547 17.706 6.35547H18.8685V7.69511H17.706Z" fill="#1F2328"/>
<path d="M18.8622 7.69511C18.793 7.69511 18.7321 7.62868 18.6768 7.49583C18.6214 7.36297 18.5938 7.20797 18.5938 7.03083C18.5938 6.85368 18.6214 6.68761 18.6768 6.55476C18.7321 6.4219 18.793 6.35547 18.8622 6.35547H20.0247V7.69511H18.8622Z" fill="#1F2328"/>
<path d="M26.0099 6.34545C26.1511 6.34545 26.3006 6.33715 26.4639 6.32331C26.6272 6.30947 26.7683 6.28179 26.8901 6.24304C26.8458 5.89429 26.7711 5.52617 26.6659 5.13313C26.5607 4.74286 26.4334 4.3692 26.2784 4.01215L27.1973 3.23438C27.3108 3.50286 27.4049 3.76857 27.4852 4.03429C27.5655 4.3 27.6264 4.54911 27.6734 4.78438C27.7205 5.01965 27.7509 5.23277 27.7675 5.42929C27.7814 5.62581 27.7897 5.78912 27.7897 5.9192C27.7897 6.02438 27.7703 6.14893 27.7315 6.28733C27.6928 6.42572 27.643 6.56688 27.5821 6.70804C27.5184 6.8492 27.452 6.97653 27.3772 7.09001C27.3025 7.20626 27.2333 7.29206 27.1697 7.34742C27.0562 7.43876 26.8956 7.51626 26.6908 7.58269C26.4832 7.64912 26.2258 7.68233 25.9158 7.68233C25.6916 7.68233 25.4674 7.64081 25.2377 7.56054C25.008 7.48028 24.8087 7.31421 24.6398 7.0651C24.4931 7.29206 24.3105 7.4526 24.0973 7.54394C23.8842 7.63528 23.6185 7.68233 23.3002 7.68233C22.9597 7.68233 22.6802 7.62697 22.4588 7.51349C22.2401 7.40278 22.0657 7.21456 21.9412 6.94885C21.764 7.2284 21.5454 7.42215 21.2907 7.52456C21.0361 7.62974 20.7288 7.67956 20.369 7.67956H20.0341C19.9649 7.67956 19.904 7.61314 19.8487 7.48028C19.7933 7.34742 19.7656 7.19242 19.7656 7.01528C19.7656 6.83813 19.7933 6.67206 19.8487 6.5392C19.904 6.40635 19.9649 6.33992 20.0341 6.33992H20.4659C20.8368 6.33992 21.108 6.27626 21.2824 6.14893C21.4568 6.02161 21.573 5.84724 21.6284 5.62304L21.8941 4.54911L22.694 4.5934C22.6636 4.82866 22.6359 5.03349 22.6138 5.2134C22.5916 5.39331 22.5805 5.54 22.5805 5.65625C22.5805 5.88045 22.6414 6.04929 22.766 6.16554C22.8878 6.28179 23.0871 6.33715 23.3583 6.33715C23.6905 6.33715 23.923 6.28179 24.053 6.17661C24.1831 6.06867 24.2689 5.9192 24.3105 5.72545L24.5042 4.57402L25.3097 4.59616L25.2128 5.98009C25.3595 6.21813 25.6252 6.33715 26.0072 6.33715L26.0099 6.34545Z" fill="#1F2328"/>
<path d="M34.1694 7.68912C33.7847 7.68912 33.4747 7.61993 33.2422 7.4843C33.0097 7.34868 32.8298 7.15769 32.7052 6.91135C32.5115 7.166 32.1544 7.37359 31.6313 7.54243C31.1082 7.71126 30.4688 7.84412 29.7076 7.94653L29.0959 6.73698C29.3257 6.72314 29.5554 6.70376 29.7851 6.67885C30.0149 6.65671 30.2335 6.62349 30.4411 6.58198C30.3802 6.1668 30.3055 5.75162 30.2169 5.34198C30.1284 4.93233 30.0066 4.51992 29.8516 4.11028C29.6966 3.70063 29.5028 3.29099 29.2703 2.88411C29.0378 2.47724 28.7472 2.06483 28.3984 1.64411L29.024 0.655982C29.4447 1.17357 29.7824 1.67456 30.037 2.15893C30.2917 2.64331 30.4965 3.12215 30.6515 3.59545C30.8065 4.06876 30.9227 4.5393 31.0002 5.00983C31.0777 5.48037 31.1469 5.95367 31.2078 6.43528C31.4514 6.37162 31.6645 6.30796 31.8555 6.24153C32.0465 6.1751 32.1987 6.10867 32.315 6.03671C32.2928 5.20912 32.2679 4.50608 32.243 3.9276C32.2181 3.34911 32.1932 2.86474 32.1655 2.46893C32.1378 2.07313 32.1046 1.75206 32.0631 1.50295C32.0216 1.25661 31.9717 1.04348 31.9164 0.863572L32.791 0C32.8907 0.163304 32.9571 0.370894 32.9986 0.622769C33.0374 0.874645 33.0623 1.14313 33.0706 1.43098C33.0844 1.71884 33.101 2.03161 33.1149 2.36652C33.1287 2.70143 33.1426 3.04742 33.1481 3.39893C33.1536 3.75045 33.1619 4.10197 33.1647 4.45072C33.1675 4.80224 33.1702 5.13162 33.1702 5.44162C33.1702 5.7101 33.2533 5.92876 33.4193 6.09483C33.5854 6.26091 33.8871 6.34394 34.3217 6.34394V7.68359H34.1694V7.68912Z" fill="#1F2328"/>
<path d="M34.3388 7.69511C34.2696 7.69511 34.2087 7.62868 34.1534 7.49583C34.098 7.36297 34.0703 7.20797 34.0703 7.03083C34.0703 6.85368 34.098 6.68761 34.1534 6.55476C34.2087 6.4219 34.2696 6.35547 34.3388 6.35547H35.5013V7.69511H34.3388Z" fill="#1F2328"/>
<path d="M35.4794 7.69511C35.4102 7.69511 35.3493 7.62868 35.294 7.49583C35.2386 7.36297 35.2109 7.20797 35.2109 7.03083C35.2109 6.85368 35.2386 6.68761 35.294 6.55476C35.3493 6.4219 35.4102 6.35547 35.4794 6.35547H36.6419V7.69511H35.4794Z" fill="#1F2328"/>
<path d="M36.6513 7.69511C36.5821 7.69511 36.5212 7.62868 36.4658 7.49583C36.4105 7.36297 36.3828 7.20797 36.3828 7.03083C36.3828 6.85368 36.4105 6.68761 36.4658 6.55476C36.5212 6.4219 36.5821 6.35547 36.6513 6.35547H37.8138V7.69511H36.6513Z" fill="#1F2328"/>
<path d="M37.8154 7.69511C37.7462 7.69511 37.6853 7.62868 37.6299 7.49583C37.5746 7.36297 37.5469 7.20797 37.5469 7.03083C37.5469 6.85368 37.5746 6.68761 37.6299 6.55476C37.6853 6.4219 37.7462 6.35547 37.8154 6.35547H38.9779V7.69511H37.8154Z" fill="#1F2328"/>
<path d="M38.9794 7.69511C38.9102 7.69511 38.8493 7.62868 38.794 7.49583C38.7386 7.36297 38.7109 7.20797 38.7109 7.03083C38.7109 6.85368 38.7386 6.68761 38.794 6.55476C38.8493 6.4219 38.9102 6.35547 38.9794 6.35547H40.1419V7.69511H38.9794Z" fill="#1F2328"/>
<path d="M40.1513 7.69511C40.0821 7.69511 40.0212 7.62868 39.9659 7.49583C39.9105 7.36297 39.8828 7.20797 39.8828 7.03083C39.8828 6.85368 39.9105 6.68761 39.9659 6.55476C40.0212 6.4219 40.0821 6.35547 40.1513 6.35547H41.3138V7.69511H40.1513Z" fill="#1F2328"/>
<path d="M41.3154 7.69511C41.2462 7.69511 41.1853 7.62868 41.1299 7.49583C41.0746 7.36297 41.0469 7.20797 41.0469 7.03083C41.0469 6.85368 41.0746 6.68761 41.1299 6.55476C41.1853 6.4219 41.2462 6.35547 41.3154 6.35547H42.4779V7.69511H41.3154Z" fill="#1F2328"/>
<path d="M42.4794 7.69511C42.4102 7.69511 42.3493 7.62868 42.294 7.49583C42.2386 7.36297 42.2109 7.20797 42.2109 7.03083C42.2109 6.85368 42.2386 6.68761 42.294 6.55476C42.3493 6.4219 42.4102 6.35547 42.4794 6.35547H43.6419V7.69511H42.4794Z" fill="#1F2328"/>
<path d="M43.6357 7.69511C43.5665 7.69511 43.5056 7.62868 43.4502 7.49583C43.3949 7.36297 43.3672 7.20797 43.3672 7.03083C43.3672 6.85368 43.3949 6.68761 43.4502 6.55476C43.5056 6.4219 43.5665 6.35547 43.6357 6.35547H44.7982V7.69511H43.6357Z" fill="#1F2328"/>
<path d="M44.7919 7.69511C44.7227 7.69511 44.6618 7.62868 44.6065 7.49583C44.5511 7.36297 44.5234 7.20797 44.5234 7.03083C44.5234 6.85368 44.5511 6.68761 44.6065 6.55476C44.6618 6.4219 44.7227 6.35547 44.7919 6.35547H45.9544V7.69511H44.7919Z" fill="#1F2328"/>
<path d="M45.9716 7.69511C45.9024 7.69511 45.8415 7.62868 45.7862 7.49583C45.7308 7.36297 45.7031 7.20797 45.7031 7.03083C45.7031 6.85368 45.7308 6.68761 45.7862 6.55476C45.8415 6.4219 45.9024 6.35547 45.9716 6.35547H47.1341V7.69511H45.9716Z" fill="#1F2328"/>
<path d="M47.1279 7.69511C47.0587 7.69511 46.9978 7.62868 46.9424 7.49583C46.8871 7.36297 46.8594 7.20797 46.8594 7.03083C46.8594 6.85368 46.8871 6.68761 46.9424 6.55476C46.9978 6.4219 47.0587 6.35547 47.1279 6.35547H48.2904V7.69511H47.1279Z" fill="#1F2328"/>
<path d="M48.2919 7.69511C48.2227 7.69511 48.1618 7.62868 48.1065 7.49583C48.0511 7.36297 48.0234 7.20797 48.0234 7.03083C48.0234 6.85368 48.0511 6.68761 48.1065 6.55476C48.1618 6.4219 48.2227 6.35547 48.2919 6.35547H49.4544V7.69511H48.2919Z" fill="#1F2328"/>
<path d="M49.4638 7.69511C49.3946 7.69511 49.3337 7.62868 49.2783 7.49583C49.223 7.36297 49.1953 7.20797 49.1953 7.03083C49.1953 6.85368 49.223 6.68761 49.2783 6.55476C49.3337 6.4219 49.3946 6.35547 49.4638 6.35547H50.6263V7.69511H49.4638Z" fill="#1F2328"/>
<path d="M50.6044 7.69511C50.5352 7.69511 50.4743 7.62868 50.419 7.49583C50.3636 7.36297 50.3359 7.20797 50.3359 7.03083C50.3359 6.85368 50.3636 6.68761 50.419 6.55476C50.4743 6.4219 50.5352 6.35547 50.6044 6.35547H51.7669V7.69511H50.6044Z" fill="#1F2328"/>
<path d="M51.7841 7.69511C51.7149 7.69511 51.654 7.62868 51.5987 7.49583C51.5433 7.36297 51.5156 7.20797 51.5156 7.03083C51.5156 6.85368 51.5433 6.68761 51.5987 6.55476C51.654 6.4219 51.7149 6.35547 51.7841 6.35547H52.9466V7.69511H51.7841Z" fill="#1F2328"/>
<path d="M52.6825 7.02484C52.6825 6.83939 52.7101 6.68162 52.7655 6.54876C52.8209 6.41591 52.8817 6.34948 52.9509 6.34948H53.427C53.5737 6.18617 53.69 6.03671 53.7758 5.89831C53.8616 5.75992 53.9252 5.62707 53.9668 5.49698C54.0083 5.36689 54.0359 5.23956 54.0498 5.11501C54.0636 4.98769 54.0692 4.85206 54.0692 4.7026C54.0692 4.5393 54.0636 4.33171 54.0498 4.07983C54.0359 3.82796 54.0193 3.56777 54.0027 3.29929C53.9861 3.03081 53.964 2.77063 53.9446 2.51876C53.9252 2.26688 53.9086 2.05929 53.8948 1.89599C53.8726 1.6967 53.845 1.50295 53.8118 1.32304C53.7785 1.14036 53.7398 0.988126 53.6955 0.863572L54.5812 0C54.6726 0.163304 54.7362 0.370894 54.7777 0.622769C54.8165 0.874645 54.8442 1.14313 54.8608 1.43098C54.8691 1.61643 54.8774 1.8351 54.8884 2.08697C54.8995 2.33885 54.9106 2.59072 54.9217 2.84536C54.9327 3.10001 54.941 3.33804 54.9438 3.55947C54.9466 3.7809 54.9493 3.96081 54.9493 4.09367C54.9493 4.41198 54.9217 4.67492 54.8691 4.88251C55.0767 4.68876 55.2926 4.50885 55.514 4.33724C55.7354 4.16563 55.9513 4.02171 56.1617 3.89715C56.372 3.77537 56.5685 3.67849 56.754 3.6093C56.9394 3.5401 57.1055 3.50412 57.2522 3.50412C57.4072 3.50412 57.565 3.56778 57.7227 3.6951C57.8805 3.82242 58.0244 3.99126 58.1518 4.20162C58.2791 4.41198 58.3815 4.64724 58.4645 4.91019C58.5448 5.17314 58.5863 5.44439 58.5863 5.72394C58.5863 5.79867 58.5614 5.90109 58.5116 6.03118C58.4618 6.16126 58.4036 6.29412 58.3317 6.43528C58.2597 6.57644 58.185 6.70376 58.0992 6.81725C58.0134 6.9335 57.9359 7.01653 57.8639 7.06912C57.7504 7.15493 57.5899 7.23796 57.3851 7.31546C57.1775 7.39296 56.9477 7.45939 56.6931 7.51475C56.4384 7.57011 56.1672 7.61162 55.8849 7.64207C55.6026 7.67252 55.3202 7.68636 55.0434 7.68636H52.9482C52.879 7.68636 52.8181 7.61993 52.7627 7.48707C52.7074 7.35421 52.6797 7.19921 52.6797 7.02207L52.6825 7.02484ZM56.8647 4.69153C56.7235 4.69153 56.563 4.73305 56.3776 4.81331C56.1921 4.89358 55.9901 5.00706 55.7659 5.15376C55.5444 5.30046 55.3147 5.47483 55.0739 5.68242C54.8331 5.89001 54.5951 6.11144 54.357 6.34948H55.1237C55.3396 6.34948 55.5666 6.34117 55.8074 6.32733C56.0482 6.3135 56.2807 6.28858 56.5104 6.2526C56.7401 6.21939 56.956 6.1751 57.1581 6.12528C57.3601 6.07546 57.5401 6.0118 57.6951 5.9343C57.6535 5.77099 57.601 5.61323 57.5373 5.46376C57.4736 5.3143 57.3989 5.17867 57.3186 5.06519C57.2384 4.95171 57.1553 4.86037 57.0751 4.79394C56.9948 4.72751 56.9256 4.69153 56.8675 4.69153H56.8647Z" fill="#1F2328"/>
<path d="M3.71124 21.5227C3.46261 21.5227 3.26333 21.4788 3.11342 21.391C2.96351 21.3033 2.85382 21.179 2.78069 21.0199C2.71853 21.1077 2.62712 21.1844 2.50829 21.2484C2.38946 21.3124 2.24868 21.3727 2.08415 21.4258C1.91961 21.4806 1.73496 21.5281 1.5302 21.5702C1.32544 21.6122 1.11154 21.647 0.884848 21.6781L0.575883 21.1369C0.727623 21.1259 0.873879 21.1131 1.01465 21.0967C1.15542 21.0802 1.29436 21.0601 1.42965 21.0345C1.39126 20.7548 1.34555 20.4733 1.29254 20.1899C1.23769 19.9065 1.15908 19.6177 1.05304 19.3252C0.947007 19.0326 0.809892 18.7346 0.643526 18.4312C0.475332 18.1295 0.261432 17.8169 0 17.497L0.268745 17.0326C0.563085 17.3873 0.798923 17.7365 0.978086 18.0765C1.15542 18.4184 1.29619 18.7529 1.39857 19.0802C1.50095 19.4074 1.57956 19.7274 1.63075 20.04C1.68194 20.3526 1.72765 20.6616 1.76421 20.9651C2.17007 20.8773 2.45527 20.764 2.62164 20.6287C2.60701 20.0711 2.59421 19.5921 2.58324 19.1862C2.57228 18.7822 2.55765 18.4367 2.53571 18.1496C2.51377 17.8626 2.49183 17.6268 2.46624 17.4458C2.44065 17.2648 2.40408 17.113 2.35655 16.9942L2.74595 16.5664C2.78617 16.6286 2.82091 16.7328 2.85016 16.879C2.87941 17.0235 2.90318 17.1971 2.92329 17.3964C2.9434 17.5975 2.95985 17.8187 2.97265 18.0619C2.98545 18.305 2.99459 18.5537 2.99825 18.8059C3.00373 19.0582 3.00739 19.3087 3.00921 19.5555C3.01104 19.8023 3.01287 20.0308 3.01287 20.2429C3.01287 20.455 3.07137 20.6305 3.18838 20.753C3.30538 20.8773 3.51745 20.9376 3.82459 20.9376V21.519H3.71124V21.5227Z" fill="#4C4F53"/>
<path d="M3.63048 21.2356C3.63048 21.1607 3.64877 21.0912 3.6835 21.0309C3.71824 20.9705 3.76577 20.9395 3.82245 20.9395H4.13141C4.25573 20.8005 4.3508 20.678 4.42027 20.5738C4.48974 20.4678 4.54093 20.3654 4.57566 20.2685C4.6104 20.1698 4.63051 20.0747 4.63782 19.9797C4.64513 19.8846 4.64879 19.7804 4.64879 19.6634C4.64879 19.5299 4.64331 19.3617 4.63417 19.1606C4.62502 18.9595 4.61223 18.7566 4.59943 18.55C4.58663 18.3434 4.57201 18.1496 4.55555 17.9668C4.5391 17.7822 4.5263 17.6396 4.51533 17.5354C4.50071 17.422 4.48243 17.316 4.46232 17.2172C4.4422 17.1185 4.42209 17.0454 4.40198 16.9942L4.78773 16.5664C4.82247 16.6249 4.85538 16.72 4.88463 16.8534C4.91388 16.9869 4.93216 17.1112 4.94313 17.2246C4.95776 17.3653 4.97238 17.5427 4.98518 17.7566C4.99798 17.9705 5.00895 18.1862 5.02174 18.4019C5.03271 18.6176 5.04185 18.8187 5.04551 19.0016C5.04917 19.1844 5.05282 19.3142 5.05282 19.3928C5.05282 19.5208 5.04734 19.636 5.03637 19.7365C5.0254 19.8371 5.00712 19.9394 4.98152 20.0418C5.12047 19.9029 5.26124 19.7731 5.40201 19.6506C5.54461 19.5281 5.68538 19.4221 5.82432 19.3325C5.96509 19.2429 6.09672 19.1734 6.22287 19.1204C6.34902 19.0674 6.46419 19.0436 6.56657 19.0436C6.66895 19.0436 6.76219 19.0838 6.86091 19.1624C6.95963 19.2429 7.04739 19.3434 7.12417 19.4659C7.20096 19.5902 7.26312 19.7292 7.30882 19.8864C7.35453 20.0436 7.37829 20.2009 7.37829 20.3563C7.37829 20.402 7.36549 20.4623 7.3399 20.5373C7.3143 20.6122 7.2814 20.6872 7.23935 20.7621C7.1973 20.8371 7.15342 20.9066 7.10772 20.9742C7.06201 21.0418 7.01448 21.0912 6.9706 21.1241C6.87188 21.1954 6.74756 21.2539 6.59765 21.3033C6.44774 21.3526 6.29051 21.3929 6.12963 21.4239C5.96692 21.455 5.80421 21.4788 5.6415 21.4934C5.47879 21.508 5.33619 21.5153 5.21188 21.5153H3.81696C3.75846 21.5153 3.71275 21.4861 3.67802 21.4312C3.64328 21.3746 3.625 21.3069 3.625 21.2283L3.63048 21.2356ZM6.41483 19.6268C6.296 19.6268 6.16437 19.6597 6.01994 19.7274C5.87551 19.795 5.72194 19.8864 5.56289 20.0034C5.40384 20.1204 5.2393 20.2612 5.07111 20.4221C4.90291 20.5848 4.73837 20.7585 4.57384 20.9413H5.25393C5.40749 20.9413 5.56838 20.9358 5.73474 20.9267C5.90294 20.9157 6.06565 20.8974 6.22287 20.87C6.3801 20.8426 6.52818 20.806 6.66895 20.7621C6.80789 20.7182 6.93038 20.6616 7.03276 20.5939C7.01265 20.4696 6.97792 20.349 6.92856 20.2319C6.87919 20.1131 6.82618 20.0107 6.76585 19.923C6.70734 19.8352 6.64518 19.7639 6.5812 19.7091C6.51721 19.6542 6.46054 19.6286 6.413 19.6286L6.41483 19.6268Z" fill="#4C4F53"/>
<path d="M12.9777 21.5189C12.8589 21.5189 12.7456 21.5025 12.6377 21.4714C12.5298 21.4403 12.4329 21.3891 12.3507 21.3178C12.3561 21.369 12.358 21.4166 12.358 21.4641V21.5939C12.358 21.6414 12.3507 21.7073 12.336 21.7913C12.3214 21.8754 12.2995 21.965 12.2721 22.0583C12.2446 22.1515 12.2062 22.2429 12.1605 22.3307C12.1148 22.4184 12.06 22.4879 11.996 22.5391C11.9229 22.6012 11.8205 22.6671 11.6907 22.7329C11.5591 22.7987 11.4073 22.859 11.2355 22.9139C11.0636 22.9687 10.8716 23.0126 10.6632 23.0492C10.4548 23.0857 10.2336 23.104 10.0014 23.104C9.64858 23.104 9.3579 23.0601 9.12938 22.9724C8.90085 22.8846 8.72717 22.7731 8.60834 22.6396C8.50962 22.5263 8.44014 22.3819 8.3981 22.2063C8.35605 22.0308 8.33594 21.8261 8.33594 21.5921C8.33594 21.3197 8.37067 21.0436 8.44197 20.7621C8.51327 20.4805 8.60651 20.2045 8.72534 19.9284L8.99409 20.0454C8.95387 20.1643 8.91913 20.2867 8.88805 20.4111C8.85697 20.5354 8.82955 20.6615 8.80396 20.7877C8.77653 20.912 8.75825 21.0308 8.74545 21.1405C8.73266 21.2502 8.72717 21.3508 8.72717 21.4385C8.72717 21.6122 8.7418 21.7566 8.77288 21.87C8.80396 21.9833 8.84052 22.0711 8.88257 22.135C8.95752 22.2429 9.10378 22.3343 9.31768 22.4093C9.53158 22.4842 9.7857 22.5208 10.08 22.5208C10.2555 22.5208 10.4329 22.5098 10.6102 22.4861C10.7876 22.4641 10.9594 22.4312 11.1239 22.3892C11.2885 22.3471 11.4439 22.3014 11.5883 22.2484C11.7327 22.1954 11.8625 22.1405 11.9759 22.0802C11.9649 21.7072 11.9283 21.3215 11.8644 20.923C11.8004 20.5244 11.7236 20.1368 11.6358 19.7639L12.0435 19.4842L12.1916 20.1259C12.2337 20.2977 12.2794 20.4348 12.3251 20.5409C12.3708 20.6469 12.4274 20.7292 12.4914 20.7877C12.5554 20.8462 12.6304 20.8846 12.7145 20.9028C12.7986 20.9211 12.9009 20.9284 13.018 20.9284C13.1532 20.9284 13.2648 20.9175 13.3525 20.8937C13.4384 20.8718 13.5097 20.837 13.5646 20.7932C13.6194 20.7493 13.6597 20.6963 13.6889 20.6341C13.7182 20.5719 13.7401 20.5025 13.7547 20.4239L13.9247 19.7127L14.2575 19.7438L14.1405 20.5793C14.188 20.6871 14.2666 20.773 14.3745 20.8352C14.4823 20.8974 14.6231 20.9284 14.7968 20.9284C14.9175 20.9284 15.0381 20.923 15.1588 20.9102C15.2794 20.8974 15.3763 20.8736 15.4495 20.8389C15.422 20.5847 15.3782 20.3343 15.3197 20.0911C15.2612 19.848 15.1716 19.5865 15.0527 19.3123L15.4312 18.9576C15.5829 19.2885 15.6816 19.5957 15.731 19.8827C15.7804 20.1697 15.8041 20.4037 15.8041 20.5811C15.8041 20.6396 15.7932 20.7072 15.7712 20.784C15.7493 20.8608 15.7237 20.9358 15.6944 21.0089C15.6652 21.082 15.6305 21.146 15.5939 21.2027C15.5573 21.2593 15.5244 21.2977 15.4933 21.3178C15.4147 21.3727 15.3215 21.4202 15.21 21.455C15.0984 21.4897 14.9357 21.5098 14.7182 21.5098C14.5701 21.5098 14.422 21.4824 14.2776 21.4294C14.1332 21.3745 14.0015 21.2575 13.8827 21.0765C13.7949 21.2283 13.6816 21.338 13.5445 21.4074C13.4074 21.4769 13.2172 21.5116 12.9759 21.5116L12.9777 21.5189ZM13.4659 19.0033C13.411 18.9631 13.3306 18.9101 13.2245 18.8461C13.1185 18.7821 13.0216 18.7255 12.9339 18.6779L13.2136 18.1752C13.3214 18.2172 13.4256 18.2684 13.528 18.3287C13.6304 18.3891 13.7072 18.4494 13.762 18.5152L13.4677 19.0033H13.4659ZM13.8205 18.1843C13.7657 18.1386 13.6871 18.0856 13.5865 18.0234C13.486 17.9613 13.3909 17.9064 13.3032 17.8589L13.5609 17.3945C13.6688 17.4366 13.7712 17.4878 13.8662 17.5481C13.9613 17.6066 14.0381 17.6669 14.0929 17.7273L13.8205 18.1843ZM14.4092 18.9668C14.3544 18.9211 14.2739 18.8662 14.1679 18.8022C14.0619 18.7383 13.965 18.6852 13.8772 18.6414L14.1533 18.1386C14.2648 18.1788 14.369 18.23 14.4695 18.2903C14.5683 18.3507 14.6469 18.4147 14.7054 18.4787L14.411 18.9668H14.4092Z" fill="#4C4F53"/>
<path d="M17.6514 19.2383C17.8672 19.2383 18.0536 19.3114 18.209 19.4558C18.3644 19.6003 18.4906 19.7813 18.5875 19.9988C18.6844 20.2164 18.7557 20.4467 18.8032 20.6935C18.8489 20.9403 18.8727 21.1652 18.8727 21.3663C18.8727 21.6405 18.816 21.8965 18.7026 22.1341C18.5893 22.3718 18.4503 22.5784 18.2858 22.7594C18.1213 22.9386 17.9476 23.0812 17.7648 23.1835C17.582 23.2859 17.4229 23.3389 17.2876 23.3389C17.2565 23.3389 17.2127 23.3298 17.1542 23.3133C17.0957 23.2969 17.0262 23.2731 16.9494 23.2439C16.8726 23.2146 16.7903 23.1835 16.7026 23.147C16.6148 23.1104 16.5271 23.072 16.4375 23.03L16.5253 22.7466C16.5801 22.7612 16.6423 22.774 16.7099 22.785C16.7775 22.796 16.8434 22.8033 16.9037 22.8106C16.964 22.8179 17.0207 22.8252 17.0701 22.8289C17.1194 22.8343 17.1542 22.8362 17.1743 22.8362C17.2931 22.8362 17.4211 22.8014 17.56 22.732C17.699 22.6625 17.8324 22.5711 17.9622 22.4541C18.092 22.3371 18.209 22.2073 18.3151 22.0592C18.4211 21.9111 18.4961 21.7575 18.5418 21.5967L18.5198 21.3809C18.401 21.423 18.2547 21.4577 18.0792 21.4833C17.9037 21.5089 17.7191 21.5217 17.5216 21.5217C17.2693 21.5217 17.0719 21.4705 16.9256 21.3663C16.7794 21.2621 16.7081 21.0957 16.7081 20.8635C16.7081 20.6314 16.7355 20.4321 16.7885 20.2365C16.8415 20.0409 16.9147 19.8672 17.0024 19.7209C17.0902 19.5728 17.1907 19.4558 17.3041 19.3699C17.4174 19.284 17.5326 19.2401 17.6514 19.2401V19.2383ZM17.5948 20.9385C17.688 20.9385 17.8123 20.933 17.9714 20.9202C18.1286 20.9074 18.2767 20.8837 18.4156 20.8489C18.3297 20.5235 18.2163 20.2639 18.0774 20.0701C17.9366 19.8763 17.7776 19.7794 17.5948 19.7794C17.496 19.7794 17.4138 19.8087 17.3479 19.869C17.2803 19.9275 17.2255 20.0006 17.1816 20.0866C17.1377 20.1725 17.1048 20.2657 17.0847 20.3663C17.0646 20.4668 17.0536 20.5546 17.0536 20.6314C17.0536 20.7301 17.0902 20.805 17.1615 20.8599C17.2328 20.9147 17.3772 20.9403 17.5948 20.9403V20.9385Z" fill="#4C4F53"/>
<path d="M21.9685 21.5243C21.8661 21.5243 21.7674 21.5096 21.676 21.4804C21.5846 21.4511 21.5023 21.4073 21.4292 21.3469C21.4292 21.6413 21.367 21.9118 21.2445 22.155C21.122 22.3981 20.9758 22.6084 20.8058 22.7839C20.6376 22.9594 20.4621 23.0947 20.2829 23.1934C20.1037 23.2921 19.9556 23.3415 19.8423 23.3415C19.8112 23.3415 19.7673 23.3324 19.7088 23.3159C19.6503 23.2994 19.5809 23.2757 19.5023 23.2464C19.4236 23.2172 19.3414 23.1861 19.2554 23.1495C19.1695 23.1148 19.0818 23.0746 18.9922 23.0325L19.0745 22.7492C19.133 22.7638 19.1951 22.7766 19.2609 22.7875C19.3267 22.7985 19.3926 22.8058 19.4547 22.8131C19.5169 22.8205 19.5717 22.8278 19.6211 22.8314C19.6704 22.8369 19.7052 22.8387 19.7253 22.8387C19.8386 22.8387 19.9684 22.7985 20.1165 22.7199C20.2646 22.6413 20.4036 22.5371 20.537 22.4109C20.6686 22.283 20.7857 22.1385 20.8844 21.9758C20.9831 21.8131 21.0507 21.6504 21.0818 21.4859C21.0489 21.2701 20.9886 21.0288 20.899 20.7619C20.8094 20.4968 20.7162 20.2482 20.6175 20.016L21.0032 19.707L21.2372 20.3652C21.2829 20.4895 21.3305 20.5882 21.378 20.665C21.4273 20.7418 21.4859 20.8003 21.5517 20.8423C21.6193 20.8844 21.6943 20.91 21.7802 20.9228C21.8661 20.9356 21.9685 20.9411 22.0855 20.9411V21.5224H21.9685V21.5243Z" fill="#4C4F53"/>
<path d="M21.8846 21.2325C21.8846 21.1575 21.9029 21.0881 21.9377 21.0277C21.9724 20.9674 22.0199 20.9363 22.0766 20.9363H22.5044C22.6726 20.9363 22.8444 20.9327 23.0163 20.9253C23.1881 20.918 23.3545 20.9034 23.5154 20.8833C23.6763 20.8632 23.8244 20.8358 23.9615 20.8029C24.0986 20.7681 24.2138 20.7297 24.307 20.684C24.296 20.5085 24.2814 20.3421 24.2613 20.1886C24.1406 20.2233 23.9944 20.2544 23.8244 20.2818C23.6543 20.3092 23.4715 20.322 23.2741 20.322C23.0218 20.322 22.8298 20.2709 22.7 20.1666C22.5702 20.0624 22.5044 19.8942 22.5044 19.6602C22.5044 19.6054 22.5154 19.5158 22.5355 19.3915C22.5556 19.2672 22.583 19.1392 22.6177 19.0021C22.6964 18.7096 22.8079 18.4884 22.9523 18.3384C23.0967 18.1885 23.2558 18.1136 23.4295 18.1136C23.6306 18.1136 23.8097 18.183 23.9651 18.322C24.1205 18.4609 24.2503 18.6419 24.3564 18.8686C24.4624 19.0935 24.541 19.344 24.5922 19.62C24.6434 19.8961 24.669 20.1666 24.669 20.4336C24.669 20.5012 24.6562 20.5762 24.6306 20.6584C24.605 20.7407 24.5739 20.8193 24.5374 20.8943C24.5008 20.9692 24.4624 21.035 24.424 21.0935C24.3856 21.1502 24.3509 21.1886 24.3198 21.2087C24.2522 21.2562 24.1553 21.3001 24.0291 21.3367C23.903 21.3733 23.7567 21.4062 23.5922 21.4336C23.4276 21.4592 23.2485 21.4811 23.0529 21.4957C22.8572 21.5104 22.6616 21.5177 22.4605 21.5177H22.0748C22.0163 21.5177 21.9706 21.4884 21.9358 21.4336C21.9011 21.3769 21.8828 21.3093 21.8828 21.2307L21.8846 21.2325ZM23.3545 19.748C23.4423 19.748 23.5648 19.7425 23.7183 19.7297C23.8737 19.7169 24.0181 19.6913 24.1516 19.6547C24.073 19.3622 23.967 19.1227 23.8298 18.9363C23.6927 18.7498 23.5355 18.6565 23.3545 18.6565C23.2668 18.6565 23.1881 18.6876 23.1223 18.7498C23.0547 18.8119 23.0053 18.8832 22.9688 18.9673C22.9359 19.0405 22.9084 19.1227 22.8865 19.2123C22.8646 19.3019 22.8518 19.3769 22.8518 19.4317C22.8518 19.5304 22.8828 19.6072 22.945 19.6639C23.0072 19.7206 23.1424 19.7498 23.3545 19.7498V19.748ZM23.4459 17.4956C23.3911 17.4499 23.3106 17.3951 23.2083 17.3293C23.1059 17.2635 23.009 17.2086 22.9212 17.1629L23.2009 16.6602C23.3088 16.7004 23.413 16.7516 23.5099 16.8137C23.6086 16.8759 23.6872 16.938 23.7476 17.0002L23.4459 17.4956Z" fill="#4C4F53"/>
<path d="M26.6358 19.2383C26.8515 19.2383 27.038 19.3114 27.1934 19.4558C27.3488 19.6003 27.4749 19.7813 27.5718 19.9988C27.6687 20.2164 27.74 20.4467 27.7876 20.6935C27.8333 20.9403 27.857 21.1652 27.857 21.3663C27.857 21.6405 27.8004 21.8965 27.687 22.1341C27.5737 22.3718 27.4347 22.5784 27.2702 22.7594C27.1056 22.9386 26.932 23.0812 26.7491 23.1835C26.5663 23.2859 26.4073 23.3389 26.272 23.3389C26.2409 23.3389 26.197 23.3298 26.1385 23.3133C26.08 23.2969 26.0106 23.2731 25.9338 23.2439C25.857 23.2146 25.7747 23.1835 25.687 23.147C25.5992 23.1104 25.5115 23.072 25.4219 23.03L25.5096 22.7466C25.5645 22.7612 25.6266 22.774 25.6943 22.785C25.7619 22.796 25.8277 22.8033 25.8881 22.8106C25.9484 22.8179 26.0051 22.8252 26.0544 22.8289C26.1038 22.8343 26.1385 22.8362 26.1586 22.8362C26.2775 22.8362 26.4054 22.8014 26.5444 22.732C26.6833 22.6625 26.8168 22.5711 26.9466 22.4541C27.0764 22.3371 27.1934 22.2073 27.2994 22.0592C27.4055 21.9111 27.4804 21.7575 27.5261 21.5967L27.5042 21.3809C27.3854 21.423 27.2391 21.4577 27.0636 21.4833C26.8881 21.5089 26.7034 21.5217 26.506 21.5217C26.2537 21.5217 26.0563 21.4705 25.91 21.3663C25.7637 21.2621 25.6924 21.0957 25.6924 20.8635C25.6924 20.6314 25.7199 20.4321 25.7729 20.2365C25.8259 20.0409 25.899 19.8672 25.9868 19.7209C26.0745 19.5728 26.1751 19.4558 26.2884 19.3699C26.4018 19.284 26.517 19.2401 26.6358 19.2401V19.2383ZM26.5791 20.9385C26.6724 20.9385 26.7967 20.933 26.9557 20.9202C27.113 20.9074 27.261 20.8837 27.4 20.8489C27.3141 20.5235 27.2007 20.2639 27.0618 20.0701C26.921 19.8763 26.7619 19.7794 26.5791 19.7794C26.4804 19.7794 26.3981 19.8087 26.3323 19.869C26.2647 19.9275 26.2098 20.0006 26.166 20.0866C26.1221 20.1725 26.0892 20.2657 26.0691 20.3663C26.0489 20.4668 26.038 20.5546 26.038 20.6314C26.038 20.7301 26.0745 20.805 26.1458 20.8599C26.2171 20.9147 26.3616 20.9403 26.5791 20.9403V20.9385Z" fill="#4C4F53"/>
<path d="M31.6111 21.454C31.4283 21.4028 31.2802 21.2913 31.1669 21.1195C31.1358 21.2072 31.07 21.2822 30.9658 21.3407C30.8616 21.3992 30.7427 21.4504 30.6093 21.4924C30.474 21.5345 30.3277 21.5637 30.1705 21.582C30.0133 21.6003 29.8652 21.6076 29.7263 21.6076C29.5252 21.6076 29.3606 21.593 29.2345 21.5619C29.1083 21.5308 29.0096 21.4869 28.9365 21.4284C28.8633 21.3699 28.814 21.2986 28.7884 21.2145C28.7628 21.1304 28.75 21.039 28.75 20.9348C28.75 20.8215 28.7573 20.7045 28.7719 20.5838C28.7866 20.4631 28.8067 20.3535 28.8323 20.2547L29.1047 20.3333C29.0937 20.3882 29.0882 20.4449 29.0864 20.5015C29.0846 20.5582 29.0827 20.6112 29.0827 20.6588C29.0827 20.699 29.0864 20.741 29.0937 20.7849C29.101 20.8288 29.1284 20.869 29.1741 20.9037C29.2198 20.9385 29.293 20.9696 29.3917 20.9933C29.4904 21.0171 29.6257 21.0299 29.7994 21.0299C29.9859 21.0299 30.1906 21.0098 30.4118 20.9714C30.633 20.933 30.8396 20.8763 31.0316 20.8032V20.7959C30.953 20.4887 30.8579 20.1542 30.7446 19.7922C30.6312 19.4302 30.5069 19.0957 30.3734 18.7849L30.7208 18.4375C30.7884 18.5911 30.8543 18.7611 30.9146 18.9476C30.9767 19.134 31.0334 19.3169 31.0883 19.4979C31.1431 19.6788 31.1906 19.8489 31.2327 20.0079C31.2747 20.1688 31.3095 20.3023 31.3406 20.4101C31.3991 20.6112 31.485 20.752 31.602 20.8306C31.7172 20.9111 31.9036 20.9494 32.1614 20.9494V21.5308C31.9749 21.5308 31.7903 21.5052 31.6075 21.454H31.6111Z" fill="#4C4F53"/>
<path d="M33.9056 18.9706C33.966 19.0949 34.0226 19.2247 34.0738 19.3618C34.125 19.4989 34.1689 19.6324 34.2055 19.764C34.242 19.8956 34.2695 20.0181 34.2859 20.1351C34.3024 20.2521 34.3115 20.3527 34.3115 20.4404C34.3115 20.5081 34.2987 20.5812 34.2731 20.6617C34.2475 20.7403 34.2164 20.8189 34.1799 20.8938C34.1433 20.9688 34.1049 21.0364 34.0647 21.0968C34.0245 21.1553 33.9897 21.1955 33.9623 21.2156C33.8234 21.3344 33.6314 21.4149 33.3864 21.4588C33.1415 21.5026 32.8818 21.5246 32.6094 21.5246H32.1451C32.0866 21.5246 32.0409 21.4953 32.0061 21.4405C31.9714 21.3838 31.9531 21.3162 31.9531 21.2375C31.9531 21.1589 31.9714 21.0931 32.0061 21.0328C32.0409 20.9725 32.0884 20.9414 32.1451 20.9414H32.6478C32.7466 20.9414 32.8526 20.9377 32.9696 20.9304C33.0866 20.9231 33.2018 20.9121 33.3206 20.8957C33.4395 20.8792 33.5528 20.8591 33.6643 20.8299C33.7758 20.8006 33.8727 20.7659 33.955 20.7256C33.9404 20.5977 33.9166 20.4642 33.8874 20.3271C33.8581 20.19 33.8215 20.0602 33.7795 19.9359C33.7374 19.8115 33.6954 19.6982 33.6515 19.5922C33.6076 19.4861 33.5656 19.3965 33.5254 19.3234L33.9038 18.9688L33.9056 18.9706ZM32.6734 23.0091C32.6186 22.9689 32.5382 22.9158 32.4321 22.8518C32.3261 22.7879 32.2292 22.7312 32.1414 22.6837L32.4211 22.1809C32.529 22.2211 32.6332 22.2723 32.7356 22.3326C32.838 22.393 32.9148 22.457 32.9696 22.5209L32.6753 23.0091H32.6734ZM33.6186 22.9707C33.5638 22.925 33.4833 22.8701 33.3773 22.8043C33.2713 22.7385 33.1744 22.6855 33.0866 22.6453L33.3663 22.1425C33.4742 22.1827 33.5784 22.2321 33.6771 22.2924C33.7758 22.3509 33.8563 22.4149 33.913 22.4825L33.6186 22.9707Z" fill="#4C4F53"/>
<path d="M37.7107 21.5243C37.6083 21.5243 37.5096 21.5096 37.4182 21.4804C37.3268 21.4511 37.2445 21.4073 37.1714 21.3469C37.1714 21.6413 37.1092 21.9118 36.9867 22.155C36.8642 22.3981 36.718 22.6084 36.5479 22.7839C36.3798 22.9594 36.2042 23.0947 36.0251 23.1934C35.8459 23.2921 35.6978 23.3415 35.5845 23.3415C35.5534 23.3415 35.5095 23.3324 35.451 23.3159C35.3925 23.2994 35.3231 23.2757 35.2444 23.2464C35.1658 23.2172 35.0836 23.1861 34.9976 23.1495C34.9117 23.1148 34.824 23.0746 34.7344 23.0325L34.8166 22.7492C34.8751 22.7638 34.9373 22.7766 35.0031 22.7875C35.0689 22.7985 35.1348 22.8058 35.1969 22.8131C35.2591 22.8205 35.3139 22.8278 35.3633 22.8314C35.4126 22.8369 35.4474 22.8387 35.4675 22.8387C35.5808 22.8387 35.7106 22.7985 35.8587 22.7199C36.0068 22.6413 36.1457 22.5371 36.2792 22.4109C36.4108 22.283 36.5278 22.1385 36.6266 21.9758C36.7253 21.8131 36.7929 21.6504 36.824 21.4859C36.7911 21.2701 36.7308 21.0288 36.6412 20.7619C36.5516 20.4968 36.4584 20.2482 36.3596 20.016L36.7454 19.707L36.9794 20.3652C37.0251 20.4895 37.0726 20.5882 37.1202 20.665C37.1695 20.7418 37.228 20.8003 37.2939 20.8423C37.3615 20.8844 37.4365 20.91 37.5224 20.9228C37.6083 20.9356 37.7107 20.9411 37.8277 20.9411V21.5224H37.7107V21.5243Z" fill="#4C4F53"/>
<path d="M37.6443 21.2372C37.6443 21.1622 37.6626 21.0927 37.6973 21.0324C37.732 20.9721 37.7796 20.941 37.8362 20.941H38.765C38.9569 20.941 39.1343 20.9136 39.3006 20.8606C39.4652 20.8057 39.6352 20.7308 39.8089 20.632C39.9899 20.5315 40.1635 20.4309 40.3281 20.3304C40.4926 20.2298 40.6663 20.1348 40.8473 20.047C40.4688 19.9337 40.1288 19.8258 39.8253 19.7216C39.5218 19.6174 39.2714 19.5662 39.0758 19.5662C39.0483 19.5662 39.0191 19.568 38.988 19.5735C38.9569 19.579 38.9258 19.5881 38.8893 19.6046C38.8619 19.6869 38.8381 19.7911 38.818 19.9136C38.7979 20.036 38.7851 20.1457 38.7796 20.239L38.3372 20.3706C38.3573 20.2097 38.3847 20.0543 38.4176 19.9062C38.4523 19.7582 38.4889 19.6393 38.5291 19.5516C38.5566 19.4931 38.5949 19.4364 38.6425 19.3797C38.69 19.323 38.7449 19.2719 38.8088 19.2243C38.8728 19.1768 38.935 19.1384 38.999 19.1091C39.063 19.0781 39.1251 19.0634 39.1855 19.0634C39.2988 19.0634 39.4286 19.0817 39.5767 19.1201C39.7248 19.1585 39.9003 19.2115 40.1032 19.2828C40.3061 19.3541 40.5456 19.4327 40.8199 19.5223C41.0923 19.6119 41.4122 19.7106 41.7778 19.8185L41.5859 20.3249C41.4415 20.3249 41.308 20.3432 41.1818 20.3816C41.0557 20.42 40.9259 20.473 40.7906 20.5443C40.6553 20.6156 40.5127 20.6997 40.3592 20.7984C40.2074 20.8989 40.0356 21.0105 39.8436 21.1366C39.6699 21.25 39.4816 21.3432 39.2805 21.4145C39.0794 21.4858 38.8801 21.5224 38.6827 21.5224H37.8326C37.7741 21.5224 37.7284 21.4931 37.6936 21.4383C37.6589 21.3816 37.6406 21.314 37.6406 21.2353L37.6443 21.2372ZM39.4085 18.312C39.35 18.2663 39.2696 18.2115 39.1672 18.1457C39.0648 18.0799 38.9679 18.025 38.8801 17.9793L39.1599 17.4766C39.2677 17.5168 39.3719 17.568 39.4688 17.6301C39.5657 17.6923 39.648 17.7544 39.7101 17.8166L39.4085 18.312Z" fill="#4C4F53"/>
<path d="M44.6191 19.0878C44.7745 19.0878 44.9153 19.139 45.0378 19.2395C45.1603 19.3401 45.2663 19.4699 45.3559 19.6271C45.4454 19.7843 45.5113 19.958 45.557 20.1481C45.6027 20.3383 45.6246 20.5266 45.6246 20.713C45.6246 20.8008 45.6063 20.8885 45.5679 20.9763C45.5295 21.064 45.4802 21.1427 45.418 21.2121C45.3559 21.2816 45.2882 21.3401 45.2151 21.384C45.142 21.4279 45.0725 21.4498 45.0067 21.4498C44.791 21.4498 44.5643 21.437 44.3321 21.4096C44.0981 21.3822 43.8458 21.3694 43.5752 21.3694C43.4472 21.3694 43.3412 21.384 43.2571 21.4151C43.2626 21.5759 43.2754 21.7862 43.2955 22.044C43.3156 22.3017 43.3375 22.5577 43.3631 22.8082C43.3906 23.1025 43.4216 23.4096 43.4582 23.7296L43.0724 23.9983C43.0304 23.6382 42.9957 23.2999 42.9701 22.9855C42.9591 22.852 42.9481 22.7186 42.9353 22.5833C42.9225 22.448 42.9116 22.32 42.9024 22.1994C42.8933 22.0787 42.886 21.9708 42.8823 21.8776C42.8787 21.7844 42.875 21.7094 42.875 21.6546C42.875 21.5759 42.8878 21.4973 42.9152 21.4187C42.9426 21.3401 42.9737 21.2652 43.0139 21.1939C43.0542 21.1226 43.0944 21.064 43.1364 21.0147C43.1785 20.9653 43.2224 20.9342 43.2644 20.9178C43.3522 20.8831 43.4783 20.8575 43.6428 20.8428C43.6227 20.7807 43.6118 20.7094 43.6118 20.6308C43.6118 20.5357 43.6227 20.4351 43.6465 20.3291C43.6703 20.2231 43.7087 20.0914 43.7672 19.936C43.8604 19.6838 43.9811 19.479 44.131 19.3218C44.2809 19.1645 44.4436 19.0859 44.6173 19.0859L44.6191 19.0878ZM44.5441 19.6289C44.4564 19.6289 44.376 19.6582 44.3047 19.713C44.2334 19.7697 44.173 19.841 44.1237 19.9269C44.0743 20.0128 44.0359 20.1042 44.0067 20.203C43.9774 20.3017 43.9628 20.3949 43.9628 20.4827C43.9628 20.6161 44.0067 20.7094 44.0944 20.7642C44.1822 20.8191 44.3065 20.8538 44.4655 20.8684C44.5039 20.8739 44.5569 20.8794 44.6264 20.8831C44.6959 20.8867 44.7708 20.8922 44.8531 20.894C44.9354 20.8959 45.0158 20.8995 45.0926 20.9013C45.1694 20.9032 45.2316 20.905 45.2773 20.905C45.2718 20.7715 45.2517 20.6308 45.2133 20.4809C45.1749 20.3309 45.1255 20.1938 45.0615 20.0677C44.9975 19.9415 44.9244 19.8373 44.8367 19.7532C44.7507 19.671 44.652 19.6289 44.5441 19.6289Z" fill="#4C4F53"/>
<path d="M48.1951 21.5243C48.0927 21.5243 47.994 21.5096 47.9025 21.4804C47.8111 21.4511 47.7289 21.4073 47.6557 21.3469C47.6557 21.6413 47.5936 21.9118 47.4711 22.155C47.3486 22.3981 47.2023 22.6084 47.0323 22.7839C46.8641 22.9594 46.6886 23.0947 46.5095 23.1934C46.3303 23.2921 46.1822 23.3415 46.0689 23.3415C46.0378 23.3415 45.9939 23.3324 45.9354 23.3159C45.8769 23.2994 45.8074 23.2757 45.7288 23.2464C45.6502 23.2172 45.5679 23.1861 45.482 23.1495C45.3961 23.1148 45.3083 23.0746 45.2188 23.0325L45.301 22.7492C45.3595 22.7638 45.4217 22.7766 45.4875 22.7875C45.5533 22.7985 45.6191 22.8058 45.6813 22.8131C45.7434 22.8205 45.7983 22.8278 45.8477 22.8314C45.897 22.8369 45.9317 22.8387 45.9519 22.8387C46.0652 22.8387 46.195 22.7985 46.3431 22.7199C46.4912 22.6413 46.6301 22.5371 46.7636 22.4109C46.8952 22.283 47.0122 22.1385 47.1109 21.9758C47.2097 21.8131 47.2773 21.6504 47.3084 21.4859C47.2755 21.2701 47.2151 21.0288 47.1256 20.7619C47.036 20.4968 46.9427 20.2482 46.844 20.016L47.2298 19.707L47.4638 20.3652C47.5095 20.4895 47.557 20.5882 47.6045 20.665C47.6539 20.7418 47.7124 20.8003 47.7782 20.8423C47.8459 20.8844 47.9208 20.91 48.0068 20.9228C48.0927 20.9356 48.1951 20.9411 48.3121 20.9411V21.5224H48.1951V21.5243Z" fill="#4C4F53"/>
<path d="M50.8535 21.5233C50.6524 21.5233 50.4513 21.5032 50.252 21.4648C50.0528 21.4264 49.8937 21.357 49.7767 21.2583C49.5902 21.3606 49.3909 21.4319 49.1825 21.4685C48.9723 21.5051 48.7419 21.5233 48.4933 21.5233H48.3013C48.2428 21.5233 48.1971 21.4941 48.1624 21.4392C48.1277 21.3826 48.1094 21.3149 48.1094 21.2363C48.1094 21.1577 48.1277 21.0919 48.1624 21.0316C48.1971 20.9712 48.2447 20.9401 48.3013 20.9401H48.8662C48.9686 20.9401 49.0655 20.9347 49.1588 20.9255C49.0655 20.8231 48.9961 20.7098 48.9503 20.5891C48.9046 20.4685 48.8827 20.3533 48.8827 20.2454C48.8827 20.059 48.9174 19.878 48.9869 19.7025C49.0564 19.5269 49.1423 19.3716 49.2465 19.2363C49.3507 19.101 49.4622 18.9895 49.5829 18.9035C49.7036 18.8176 49.8187 18.7756 49.9266 18.7756C50.0509 18.7756 50.1716 18.8176 50.2886 18.9035C50.4056 18.9895 50.5098 19.0937 50.5976 19.218C50.6853 19.3423 50.7566 19.4703 50.8115 19.6074C50.8663 19.7445 50.8919 19.8652 50.8919 19.973C50.8919 20.0151 50.8864 20.0681 50.8736 20.1303C50.8608 20.1924 50.848 20.2546 50.8316 20.3149C50.8169 20.3771 50.7987 20.4337 50.7804 20.4849C50.7621 20.5361 50.7475 20.5727 50.7365 20.5928C50.7018 20.6604 50.6615 20.7226 50.6177 20.7793C50.5738 20.8359 50.5226 20.8871 50.4641 20.9328C50.5372 20.9438 50.6122 20.9475 50.6908 20.9438C50.7694 20.9401 50.848 20.9401 50.9285 20.9401H51.3928V21.5215H50.8517L50.8535 21.5233ZM49.848 19.3167C49.7895 19.3167 49.7255 19.3386 49.6542 19.3825C49.5829 19.4264 49.5153 19.4831 49.4549 19.5525C49.3928 19.622 49.3398 19.7006 49.2959 19.7884C49.252 19.8761 49.2301 19.9639 49.2301 20.0535C49.2301 20.1924 49.2739 20.3314 49.3635 20.4703C49.4531 20.6092 49.5902 20.7244 49.7767 20.8122C49.9577 20.7336 50.1186 20.6403 50.2612 20.5288C50.4038 20.4173 50.5098 20.3112 50.5829 20.207C50.5427 20.0736 50.4897 19.9511 50.4257 19.8414C50.3617 19.7299 50.2922 19.6366 50.2155 19.558C50.1387 19.4794 50.0692 19.4209 50.0016 19.3789C49.9339 19.3368 49.8846 19.3167 49.848 19.3167ZM49.9833 18.1558C49.9284 18.1101 49.848 18.0552 49.7456 17.9894C49.6432 17.9236 49.5463 17.8688 49.4586 17.8231L49.7383 17.3203C49.8462 17.3605 49.9504 17.4117 50.0473 17.4739C50.146 17.536 50.2246 17.5982 50.2849 17.6604L49.9833 18.1558Z" fill="#4C4F53"/>
<path d="M53.8111 21.5219C53.5314 21.5219 53.312 21.4854 53.1512 21.4141C52.9921 21.3428 52.8678 21.2111 52.7782 21.0192C52.7032 21.1435 52.6338 21.2331 52.5698 21.2916C52.4711 21.3665 52.3193 21.425 52.1127 21.4634C51.9061 21.5018 51.6721 21.5219 51.4107 21.5219C51.3522 21.5219 51.3065 21.4927 51.2718 21.4378C51.237 21.3812 51.2188 21.3135 51.2188 21.2349C51.2188 21.1563 51.237 21.0905 51.2718 21.0302C51.3065 20.9698 51.354 20.9387 51.4107 20.9387H51.5277C51.7069 20.9387 51.8879 20.9278 52.0725 20.904C52.2572 20.8802 52.4235 20.8327 52.5716 20.7596C52.5716 20.6938 52.568 20.6115 52.5606 20.5146C52.5533 20.4177 52.5442 20.3117 52.535 20.2002C52.5259 20.0886 52.5149 19.9771 52.504 19.8638C52.493 19.7504 52.482 19.6426 52.4656 19.5383L52.8513 19.3043L52.961 20.2422C52.9811 20.4086 53.0177 20.5384 53.0689 20.6298C53.1201 20.7212 53.1859 20.7907 53.2645 20.8382C53.3449 20.8839 53.4364 20.9132 53.5424 20.9223C53.6484 20.9314 53.7636 20.9369 53.8861 20.9369V21.5183H53.8111V21.5219ZM52.2023 18.8509C52.1438 18.8107 52.0634 18.7577 51.9573 18.6937C51.8513 18.6297 51.7562 18.5731 51.6703 18.5255L51.9464 18.0228C52.0542 18.0648 52.1584 18.116 52.2608 18.1763C52.3614 18.2348 52.4418 18.2988 52.4985 18.3628L52.2041 18.8509H52.2023ZM53.1475 18.8125C53.089 18.7668 53.0086 18.712 52.9025 18.648C52.7965 18.584 52.6996 18.531 52.6118 18.4871L52.8916 17.9844C52.9994 18.0246 53.1036 18.0758 53.206 18.1361C53.3084 18.1964 53.387 18.2604 53.4437 18.3244L53.1493 18.8125H53.1475Z" fill="#4C4F53"/>
<path d="M56.0135 21.5245C55.7813 21.5245 55.593 21.4843 55.4449 21.4056C55.2968 21.327 55.1853 21.2155 55.1103 21.0747C55.0573 21.157 55.0116 21.2173 54.9714 21.2521C54.9129 21.2996 54.8398 21.3417 54.7502 21.3764C54.6606 21.4111 54.5655 21.4404 54.465 21.4623C54.3644 21.4843 54.2639 21.4989 54.167 21.5099C54.0701 21.5208 53.9805 21.5245 53.9019 21.5245H53.8873C53.8288 21.5245 53.7831 21.4952 53.7483 21.4404C53.7136 21.3837 53.6953 21.3161 53.6953 21.2375C53.6953 21.1588 53.7136 21.093 53.7483 21.0327C53.7831 20.9724 53.8306 20.9413 53.8873 20.9413H53.9019C54.1341 20.9413 54.3407 20.923 54.5253 20.8846C54.71 20.8462 54.8434 20.7987 54.9293 20.7402C54.9293 20.4257 54.9239 20.1113 54.9147 19.795C54.9056 19.4787 54.8928 19.1807 54.88 18.8937C54.8672 18.6085 54.8526 18.3471 54.8343 18.1131C54.816 17.8791 54.7977 17.6853 54.7776 17.5353C54.7593 17.422 54.741 17.316 54.7209 17.2172C54.7008 17.1185 54.6807 17.0454 54.6606 16.9942L55.0464 16.5664C55.0847 16.6249 55.1176 16.72 55.1451 16.8534C55.1725 16.9869 55.1908 17.1112 55.2017 17.2246C55.2219 17.4202 55.2383 17.645 55.2529 17.8992C55.2657 18.1515 55.2785 18.4147 55.2895 18.6889C55.3005 18.9632 55.3078 19.2337 55.3114 19.5043C55.3169 19.7749 55.3188 20.0217 55.3188 20.2429C55.3188 20.4641 55.3773 20.6305 55.4924 20.753C55.6076 20.8755 55.8215 20.9376 56.1305 20.9376V21.519H56.0135V21.5245Z" fill="#4C4F53"/>
<path d="M57.8666 18.9706C57.9269 19.0949 57.9836 19.2247 58.0348 19.3618C58.086 19.4989 58.1298 19.6324 58.1664 19.764C58.203 19.8956 58.2304 20.0181 58.2468 20.1351C58.2633 20.2521 58.2724 20.3527 58.2724 20.4404C58.2724 20.5081 58.2596 20.5812 58.234 20.6617C58.2085 20.7403 58.1774 20.8189 58.1408 20.8938C58.1042 20.9688 58.0659 21.0364 58.0256 21.0968C57.9854 21.1553 57.9507 21.1955 57.9233 21.2156C57.7843 21.3344 57.5923 21.4149 57.3474 21.4588C57.1024 21.5026 56.8428 21.5246 56.5704 21.5246H56.106C56.0475 21.5246 56.0018 21.4953 55.9671 21.4405C55.9323 21.3838 55.9141 21.3162 55.9141 21.2375C55.9141 21.1589 55.9323 21.0931 55.9671 21.0328C56.0018 20.9725 56.0493 20.9414 56.106 20.9414H56.6088C56.7075 20.9414 56.8135 20.9377 56.9305 20.9304C57.0475 20.9231 57.1627 20.9121 57.2816 20.8957C57.4004 20.8792 57.5137 20.8591 57.6253 20.8299C57.7368 20.8006 57.8337 20.7659 57.9159 20.7256C57.9013 20.5977 57.8775 20.4642 57.8483 20.3271C57.819 20.19 57.7825 20.0602 57.7404 19.9359C57.6984 19.8115 57.6563 19.6982 57.6125 19.5922C57.5686 19.4861 57.5265 19.3965 57.4863 19.3234L57.8648 18.9688L57.8666 18.9706ZM56.6344 23.0091C56.5795 22.9689 56.4991 22.9158 56.393 22.8518C56.287 22.7879 56.1901 22.7312 56.1024 22.6837L56.3821 22.1809C56.4899 22.2211 56.5942 22.2723 56.6965 22.3326C56.7989 22.393 56.8757 22.457 56.9305 22.5209L56.6362 23.0091H56.6344ZM57.2322 23.7239C57.1737 23.6764 57.0951 23.6215 56.9964 23.5594C56.8976 23.4972 56.8026 23.4442 56.7148 23.3985L56.9671 22.9341C57.075 22.9743 57.1773 23.0237 57.2724 23.084C57.3675 23.1444 57.4443 23.2047 57.5028 23.2668L57.2304 23.7239H57.2322ZM57.5795 22.9725C57.5247 22.9268 57.4443 22.872 57.3382 22.8061C57.2322 22.7403 57.1353 22.6873 57.0475 22.6471L57.3273 22.1443C57.4351 22.1846 57.5393 22.2339 57.6381 22.2942C57.7368 22.3527 57.8172 22.4167 57.8739 22.4844L57.5795 22.9725Z" fill="#4C4F53"/>
<path d="M64.5859 0L64.5859 23" stroke="#696C6F" stroke-width="0.5"/>
<defs>
<linearGradient id="paint0_linear_2195_8747" x1="99.8841" y1="10.5812" x2="119.163" y2="10.5812" gradientUnits="userSpaceOnUse">
<stop stop-color="#806239"/>
<stop offset="0.15" stop-color="#A38A4C"/>
<stop offset="0.21" stop-color="#A89051"/>
<stop offset="0.29" stop-color="#B8A362"/>
<stop offset="0.39" stop-color="#D2C27E"/>
<stop offset="0.5" stop-color="#F6EDA3"/>
<stop offset="0.52" stop-color="#FDF6AB"/>
<stop offset="1" stop-color="#BCA567"/>
</linearGradient>
<linearGradient id="paint1_linear_2195_8747" x1="88.7422" y1="8.42093" x2="132.114" y2="7.9121" gradientUnits="userSpaceOnUse">
<stop stop-color="#806239"/>
<stop offset="0.15" stop-color="#A38A4C"/>
<stop offset="0.19" stop-color="#A89051"/>
<stop offset="0.24" stop-color="#B8A362"/>
<stop offset="0.31" stop-color="#D2C27E"/>
<stop offset="0.38" stop-color="#F6EDA3"/>
<stop offset="0.39" stop-color="#FDF6AB"/>
<stop offset="0.71" stop-color="#BCA567"/>
</linearGradient>
<linearGradient id="paint2_linear_2195_8747" x1="87.1816" y1="4.90633" x2="111.896" y2="4.90633" gradientUnits="userSpaceOnUse">
<stop offset="0.1" stop-color="#A38A4C"/>
<stop offset="0.17" stop-color="#A89051"/>
<stop offset="0.26" stop-color="#B8A362"/>
<stop offset="0.37" stop-color="#D2C27E"/>
<stop offset="0.5" stop-color="#F6EDA3"/>
<stop offset="0.52" stop-color="#FDF6AB"/>
<stop offset="1" stop-color="#BCA567"/>
</linearGradient>
<linearGradient id="paint3_linear_2195_8747" x1="76.4297" y1="18.1406" x2="95.3064" y2="18.1406" gradientUnits="userSpaceOnUse">
<stop stop-color="#806239"/>
<stop offset="0.15" stop-color="#A38A4C"/>
<stop offset="0.21" stop-color="#A89051"/>
<stop offset="0.29" stop-color="#B8A362"/>
<stop offset="0.39" stop-color="#D2C27E"/>
<stop offset="0.5" stop-color="#F6EDA3"/>
<stop offset="0.52" stop-color="#FDF6AB"/>
<stop offset="1" stop-color="#BCA567"/>
</linearGradient>
<linearGradient id="paint4_linear_2195_8747" x1="73.1016" y1="16.1214" x2="88.6044" y2="16.1214" gradientUnits="userSpaceOnUse">
<stop stop-color="#806239"/>
<stop offset="0.15" stop-color="#A38A4C"/>
<stop offset="0.21" stop-color="#A89051"/>
<stop offset="0.29" stop-color="#B8A362"/>
<stop offset="0.39" stop-color="#D2C27E"/>
<stop offset="0.5" stop-color="#F6EDA3"/>
<stop offset="0.52" stop-color="#FDF6AB"/>
<stop offset="1" stop-color="#BCA567"/>
</linearGradient>
<linearGradient id="paint5_linear_2195_8747" x1="102.068" y1="23.9723" x2="134.556" y2="12.5286" gradientUnits="userSpaceOnUse">
<stop stop-color="#806239"/>
<stop offset="0.15" stop-color="#A38A4C"/>
<stop offset="0.21" stop-color="#A89051"/>
<stop offset="0.29" stop-color="#B8A362"/>
<stop offset="0.39" stop-color="#D2C27E"/>
<stop offset="0.5" stop-color="#F6EDA3"/>
<stop offset="0.52" stop-color="#FDF6AB"/>
<stop offset="1" stop-color="#BCA567"/>
</linearGradient>
<linearGradient id="paint6_linear_2195_8747" x1="83.7924" y1="19.8138" x2="127.818" y2="9.84495" gradientUnits="userSpaceOnUse">
<stop stop-color="#806239"/>
<stop offset="0.15" stop-color="#A38A4C"/>
<stop offset="0.22" stop-color="#A89051"/>
<stop offset="0.31" stop-color="#B8A362"/>
<stop offset="0.43" stop-color="#D2C27E"/>
<stop offset="0.55" stop-color="#F6EDA3"/>
<stop offset="0.57" stop-color="#FDF6AB"/>
<stop offset="0.78" stop-color="#BCA567"/>
</linearGradient>
<linearGradient id="paint7_linear_2195_8747" x1="73.1094" y1="11.8896" x2="111.906" y2="11.8896" gradientUnits="userSpaceOnUse">
<stop stop-color="#806239"/>
<stop offset="0.15" stop-color="#A38A4C"/>
<stop offset="0.19" stop-color="#A89051"/>
<stop offset="0.24" stop-color="#B8A362"/>
<stop offset="0.31" stop-color="#D2C27E"/>
<stop offset="0.38" stop-color="#F6EDA3"/>
<stop offset="0.39" stop-color="#FDF6AB"/>
<stop offset="0.78" stop-color="#BCA567"/>
</linearGradient>
<linearGradient id="paint8_linear_2195_8747" x1="70.5879" y1="10.9962" x2="90.8386" y2="10.9962" gradientUnits="userSpaceOnUse">
<stop stop-color="#806239"/>
<stop offset="0.15" stop-color="#A38A4C"/>
<stop offset="0.19" stop-color="#A89051"/>
<stop offset="0.24" stop-color="#B8A362"/>
<stop offset="0.31" stop-color="#D2C27E"/>
<stop offset="0.38" stop-color="#F6EDA3"/>
<stop offset="0.39" stop-color="#FDF6AB"/>
<stop offset="0.78" stop-color="#BCA567"/>
</linearGradient>
</defs>
</svg>
